HIERARCHY
ROOT hip
{
  OFFSET 0 0 0
  CHANNELS 6 Xposition Yposition Zposition Zrotation Yrotation Xrotation
  JOINT abdomen
  {
    OFFSET 0 20.6881 -0.73152
    CHANNELS 3 Zrotation Xrotation Yrotation
    JOINT chest
    {
      OFFSET 0 11.7043 -0.48768
      CHANNELS 3 Zrotation Xrotation Yrotation
      JOINT neck
      {
        OFFSET 0 22.1894 -2.19456
        CHANNELS 3 Zrotation Xrotation Yrotation
        JOINT head
        {
          OFFSET -0.24384 7.07133 1.2192
          CHANNELS 3 Zrotation Xrotation Yrotation
          JOINT leftEye
          {
            OFFSET 4.14528 8.04674 8.04672
            CHANNELS 3 Zrotation Xrotation Yrotation
            End Site
            {
              OFFSET 1 0 0
            }
          }
          JOINT rightEye
          {
            OFFSET -3.6576 8.04674 8.04672
            CHANNELS 3 Zrotation Xrotation Yrotation
            End Site
            {
              OFFSET 1 0 0
            }
          }
        }
      }
      JOINT rCollar
      {
        OFFSET -2.68224 19.2634 -4.8768
        CHANNELS 3 Zrotation Xrotation Yrotation
        JOINT rShldr
        {
          OFFSET -8.77824 -1.95073 1.46304
          CHANNELS 3 Zrotation Xrotation Yrotation
          JOINT rForeArm
          {
            OFFSET -28.1742 -1.7115 0.48768
            CHANNELS 3 Zrotation Xrotation Yrotation
            JOINT rHand
            {
              OFFSET -22.5879 0.773209 7.07136
              CHANNELS 3 Zrotation Xrotation Yrotation
              JOINT rThumb1
              {
                OFFSET -1.2192 -0.487915 3.41376
                CHANNELS 3 Zrotation Xrotation Yrotation
                JOINT rThumb2
                {
                  OFFSET -3.37035 -0.52449 3.41376
                  CHANNELS 3 Zrotation Xrotation Yrotation
                  End Site
                  {
                    OFFSET -1.78271 -1.18214 1.43049
                  }
                }
              }
              JOINT rIndex1
              {
                OFFSET -7.75947 0.938293 5.60832
                CHANNELS 3 Zrotation Xrotation Yrotation
                JOINT rIndex2
                {
                  OFFSET -2.54057 -0.884171 1.56538
                  CHANNELS 3 Zrotation Xrotation Yrotation
                  End Site
                  {
                    OFFSET -1.62519 -0.234802 1.16502
                  }
                }
              }
              JOINT rMid1
              {
                OFFSET -8.24714 1.18213 3.41376
                CHANNELS 3 Zrotation Xrotation Yrotation
                JOINT rMid2
                {
                  OFFSET -3.10165 -0.590103 1.0647
                  CHANNELS 3 Zrotation Xrotation Yrotation
                  End Site
                  {
                    OFFSET -2.48547 -0.328903 0.83742
                  }
                }
              }
              JOINT rRing1
              {
                OFFSET -8.82822 0.546677 1.51678
                CHANNELS 3 Zrotation Xrotation Yrotation
                JOINT rRing2
                {
                  OFFSET -2.60934 -0.819778 -0.0198488
                  CHANNELS 3 Zrotation Xrotation Yrotation
                  End Site
                  {
                    OFFSET -2.33842 -0.294052 0.168128
                  }
                }
              }
              JOINT rPinky1
              {
                OFFSET -8.27202 -0.0477905 -0.4584
                CHANNELS 3 Zrotation Xrotation Yrotation
                JOINT rPinky2
                {
                  OFFSET -1.82734 -0.647385 -0.700984
                  CHANNELS 3 Zrotation Xrotation Yrotation
                  End Site
                  {
                    OFFSET -1.69225 -0.51767 -0.607171
                  }
                }
              }
            }
          }
        }
      }
      JOINT lCollar
      {
        OFFSET 2.68224 19.2634 -4.8768
        CHANNELS 3 Zrotation Xrotation Yrotation
        JOINT lShldr
        {
          OFFSET 8.77824 -1.95073 1.46304
          CHANNELS 3 Zrotation Xrotation Yrotation
          JOINT lForeArm
          {
            OFFSET 28.1742 -1.7115 0.48768
            CHANNELS 3 Zrotation Xrotation Yrotation
            JOINT lHand
            {
              OFFSET 22.5879 0.773209 7.07136
              CHANNELS 3 Zrotation Xrotation Yrotation
              JOINT lThumb1
              {
                OFFSET 1.2192 -0.487915 3.41376
                CHANNELS 3 Zrotation Xrotation Yrotation
                JOINT lThumb2
                {
                  OFFSET 3.37035 -0.52449 3.41376
                  CHANNELS 3 Zrotation Xrotation Yrotation
                  End Site
                  {
                    OFFSET 1.78271 -1.18214 1.43049
                  }
                }
              }
              JOINT lIndex1
              {
                OFFSET 7.75947 0.938293 5.60832
                CHANNELS 3 Zrotation Xrotation Yrotation
                JOINT lIndex2
                {
                  OFFSET 2.54057 -0.884171 1.56538
                  CHANNELS 3 Zrotation Xrotation Yrotation
                  End Site
                  {
                    OFFSET 1.62519 -0.234802 1.16502
                  }
                }
              }
              JOINT lMid1
              {
                OFFSET 8.24714 1.18213 3.41376
                CHANNELS 3 Zrotation Xrotation Yrotation
                JOINT lMid2
                {
                  OFFSET 3.10165 -0.590103 1.0647
                  CHANNELS 3 Zrotation Xrotation Yrotation
                  End Site
                  {
                    OFFSET 2.48547 -0.328903 0.83742
                  }
                }
              }
              JOINT lRing1
              {
                OFFSET 8.82822 0.546677 1.51678
                CHANNELS 3 Zrotation Xrotation Yrotation
                JOINT lRing2
                {
                  OFFSET 2.60934 -0.819778 -0.0198488
                  CHANNELS 3 Zrotation Xrotation Yrotation
                  End Site
                  {
                    OFFSET 2.33842 -0.294052 0.168128
                  }
                }
              }
              JOINT lPinky1
              {
                OFFSET 8.27202 -0.0477905 -0.4584
                CHANNELS 3 Zrotation Xrotation Yrotation
                JOINT lPinky2
                {
                  OFFSET 1.82734 -0.647385 -0.700984
                  CHANNELS 3 Zrotation Xrotation Yrotation
                  End Site
                  {
                    OFFSET 1.69225 -0.51767 -0.607171
                  }
                }
              }
            }
          }
        }
      }
    }
  }
  JOINT rButtock
  {
    OFFSET -8.77824 4.35084 1.2192
    CHANNELS 3 Zrotation Xrotation Yrotation
    JOINT rThigh
    {
      OFFSET 0 -1.70687 -2.19456
      CHANNELS 3 Zrotation Xrotation Yrotation
      JOINT rShin
      {
        OFFSET 0 -36.8199 0.73152
        CHANNELS 3 Zrotation Xrotation Yrotation
        JOINT rFoot
        {
          OFFSET 0.73152 -45.1104 -5.12064
          CHANNELS 3 Zrotation Xrotation Yrotation
          End Site
          {
            OFFSET -1.1221 -3.69964 12.103
          }
        }
      }
    }
  }
  JOINT lButtock
  {
    OFFSET 8.77824 4.35084 1.2192
    CHANNELS 3 Zrotation Xrotation Yrotation
    JOINT lThigh
    {
      OFFSET 0 -1.70687 -2.19456
      CHANNELS 3 Zrotation Xrotation Yrotation
      JOINT lShin
      {
        OFFSET 0 -36.8199 0.73152
        CHANNELS 3 Zrotation Xrotation Yrotation
        JOINT lFoot
        {
          OFFSET -0.73152 -45.1104 -5.12064
          CHANNELS 3 Zrotation Xrotation Yrotation
          End Site
          {
            OFFSET 1.1221 -3.69964 12.103
          }
        }
      }
    }
  }
}
MOTION
Frames:	4
Frame Time:	0.03333
0.011995328590273857 -0.2764592468738556 0.06428398936986923 -18.484690189361572 -1.7357194796204567 1.9428835809230804 -1.712811067700386 13.036807179450989 3.2282568141818047 2.177906781435013 -9.398316890001297 1.0491976886987686 -4.410718381404877 14.158836901187897 -3.6843956261873245 8.846429586410522 -22.810680270195007 -5.457165464758873 -0.059707858599722385 0.381948072463274 0.014160345308482647 -0.0776108494028449 0.12382166460156441 -0.12951791170053184 -0.19663500599563122 -0.25857542641460896 -0.011347504332661629 42.13424205780029 25.65183699131012 11.286058276891708 -22.741256654262543 -26.388596892356873 59.18139696121216 -3.3306578546762466 -9.526230096817017 -3.1172985211014748 0.17098843585699797 -0.08400427177548409 0.9255250543355942 0.2627934096381068 -0.09842112427577376 -0.18174480646848679 0.17335410229861736 0.1616279035806656 0.3492519445717335 7.6717159152030945 5.116311684250832 0.3474377654492855 0.06166350329294801 -0.062448992393910885 0.24303479120135307 2.7538518235087395 1.2143922597169876 -0.16161943785846233 -0.659492164850235 -0.038007237017154694 -0.14552572276443243 9.9584399163723 0.796532342210412 -0.1889288518577814 -0.1576637662947178 0.23827487602829933 0.013360418379306793 2.1681512519717216 -0.9079530648887157 -0.6992255710065365 -0.26785343885421753 0.33350687474012375 0.07447115087416023 -49.87599849700928 28.102064430713654 -24.12201225757599 21.158085465431213 -23.15007358789444 -55.364248752593994 4.678081646561623 -12.187394499778748 3.1298482418060303 -0.0830520037561655 -0.007499498315155506 0.1471747679170221 0.2103628870099783 -0.16685527749359608 -0.5519545264542103 -0.5815612524747849 0.2157349744811654 0.16457007732242346 -7.715408429503441 5.359371118247509 -0.36203191615641117 -0.055792126804590225 0.21715725772082806 -0.22705134004354477 -2.91686475276947 0.753253223374486 -0.13686470221728086 -0.503469742834568 0.1921000611037016 -0.043395208194851875 -10.411018431186676 1.1595975793898106 -0.30172106344252825 -0.30705828219652176 -0.13568126130849123 0.06596960127353668 -2.460140213370323 -0.5953407660126686 0.186253075953573 -0.025279599940404296 -0.012007147015538067 -0.2995461691170931 -30.79621732234955 -30.72388619184494 -24.926063418388367 -19.533577412366867 55.72962999343872 21.501338481903076 -4.590464606881142 -9.940985441207886 -9.098156243562698 -0.5738311260938644 -0.13179151341319084 0.19112113863229752 33.901941776275635 -30.90538054704666 27.261419892311096 20.651375949382782 57.39773333072662 -18.260208070278168 4.957344196736813 -10.328709483146667 11.806853413581848
0.005103873088955879 -0.887495219707489 0.178634911775589 -21.57780960202217 0.3126111254096031 4.618806838989258 -2.95310340821743 14.228496551513672 3.801329880952835 2.8574534878134727 -10.05182035267353 1.0840716026723385 -5.044670887291431 15.612788647413254 -4.077162221074104 9.04134638607502 -24.863229990005493 -5.613317638635635 -0.25159208569675684 -0.27023088186979294 0.18721890170127153 0.006101774051785469 -0.20833924412727356 -0.2746121445670724 0.036866627633571625 -0.07322296500205994 -0.17678297124803066 50.170950293540955 30.267414450645447 13.828175514936447 -23.878360390663147 -30.37857323884964 68.02797138690948 -4.842279776930809 -13.83324220776558 -4.157236218452454 0.08996346965432167 0.07704720832407475 0.09814705699682236 0.17407104838639498 -0.13254500459879637 0.10537929832935333 0.15483673894777894 -0.0032404018566012383 0.026042070239782333 7.648448422551155 5.37723395973444 0.19252192229032516 0.07908743689768016 0.027224798686802387 -0.018847547471523285 2.8214947879314423 1.0492216609418392 0.027610156685113907 0.0851641595363617 -0.35591404885053635 0.09835291653871536 10.284645482897758 0.8065890334546566 0.22445529699325562 0.21626098081469536 -0.007088575512170792 0.253539914265275 2.2890385799109936 -0.9323203470557928 -0.20026395097374916 -0.07443699985742569 0.021158773452043533 0.11211795033887029 -59.44135665893555 32.54980802536011 -24.29977834224701 22.826604545116425 -27.67246574163437 -62.62760639190674 6.117226257920265 -11.815334558486938 3.3508045971393585 0.1713488157838583 0.05151117453351617 0.19413187634199858 -0.05730837117880583 0.18817992880940437 0.048948805779218674 -0.1045743003487587 0.04316717851907015 0.07617008406668901 -7.634325921535492 5.499022677540779 -0.2832838101312518 0.02096217591315508 0.05535316653549671 0.05287790670990944 -2.858179695904255 0.9044188354164362 0.11253794655203819 0.44922206550836563 0.07890769746154547 -0.2388513833284378 -10.402965098619461 0.8368596900254488 -0.2171063795685768 -0.05872780457139015 -0.06644217297434807 -0.027988683432340622 -2.224423326551914 -0.6685392139479518 0.1935571082867682 -0.09301901911385357 -0.07614768343046308 0.06013479083776474 -35.313159227371216 -34.8324054479599 -30.330052077770233 -22.886688709259033 63.37785243988037 22.706626653671265 -4.49968758970499 -10.328276306390762 -10.447649359703064 -0.17697189934551716 0.19080488942563534 0.1072506420314312 40.68551927804947 -33.369882702827454 34.42436099052429 22.61637032032013 64.60065007209778 -22.77355045080185 4.930098652839661 -11.174969226121902 13.695190250873566
-0.7761672269552946 -1.2581562995910645 -0.6019494235515594 -65.69768965244293 19.09885436296463 -148.09375047683716 0.6612040847539902 20.524343848228455 6.321974694728851 1.9574573636054993 -9.861230626702309 1.925683245062828 -3.727896362543106 14.28452655673027 -1.1876680701971054 5.610349774360657 -27.006577849388123 1.5635957568883896 -0.133056971244514 1.8927262723445892 0.1765536004677415 -0.6763199670240283 -0.05038529634475708 -0.16086442745290697 -0.0014136917889118195 -0.23079578764736652 0.6759522948414087 44.879010915756226 40.61988294124603 17.564767599105835 -26.061517596244812 -34.5432311296463 74.99937057495117 -1.9983402639627457 -13.560976535081863 -5.305924750864506 0.32136204186826944 -0.6073279771953821 -0.9885070100426674 0.35051857586950064 0.575514379888773 0.9655569400638342 0.05800432059913874 0.41065231896936893 0.41693514212965965 7.348358854651451 5.270316079258919 0.25523423217236996 -0.30131764244288206 0.8582460321485996 -0.6032640114426613 2.6490579172968864 1.3975068368017673 0.12359049171209335 0.7297931984066963 0.29887125827372074 -0.034445011988282204 10.053893029689789 -0.09432071819901466 0.17990028485655785 0.1846015267074108 -0.12434595264494419 0.7342610880732536 2.330794706940651 -0.7574730925261974 -2.210017517209053 0.3308954928070307 -1.0226171649992466 0.23882990470156074 -46.702736020088196 26.811044812202454 -38.27053606510162 23.56828361749649 -28.45611870288849 -62.02912509441376 2.4283441342413425 -8.17788228392601 1.7814586870372295 0.37906075827777386 0.4104625526815653 -0.872139036655426 -0.16044760588556528 0.003491900861263275 -1.4021951705217361 0.8345076441764832 -0.6773708900436759 0.3490711050108075 -7.134469449520111 5.9173185378313065 -0.34385944716632366 0.33241165336221457 -1.11241458915174 -1.027784775942564 -2.786065824329853 1.3877186179161072 0.1735333912074566 1.990281231701374 0.41872807312756777 -0.5979966558516026 -10.319851487874985 1.3484235852956772 -0.29390058014541864 -0.20351747050881386 -0.4264225345104933 -0.2908893395215273 -1.6361024044454098 -0.08599409367889166 0.726570188999176 -0.5428795656189322 0.06558910477906466 0.507059209048748 -29.2095485329628 -32.91938155889511 -23.977521657943726 -18.82300391793251 65.2048659324646 21.09839290380478 -1.5631592273712158 -14.838135838508606 -9.658265858888626 -0.3463487885892391 -0.6467069964855909 -0.11223406065255404 56.13832354545593 -46.07085049152374 48.24951767921448 51.8834924697876 74.48787331581116 -52.368199825286865 3.2860252261161804 -9.931238293647766 12.314689457416534
-1.6842484008520842 -3.0803182125091553 -1.153447836637497 -52.76832640171051 33.20798456668854 -242.613422870636 5.752045512199402 25.091831982135773 9.431921616196632 1.2100130505859852 -9.535853862762451 3.5997209697961807 -1.7274094931781292 11.077173203229904 0.9811539016664028 1.6792747378349304 -28.182131052017212 7.5100477784872055 -0.13745646458119154 2.7373735047876835 1.1503749713301659 -0.22256890777498484 -0.47311753034591675 -1.9092835485935211 -0.2148280944675207 -1.3970454968512058 -1.1348807718604803 27.969238758087158 32.011569142341614 23.77576321363449 -30.93800961971283 -35.92434883117676 81.57121181488037 6.656867265701294 -10.557771474123001 2.527819387614727 0.7985298335552216 -1.185069177299738 1.4258227497339249 -1.0520029440522194 -1.1933080852031708 2.2605369240045547 1.478763185441494 0.7742097415030003 1.5523960255086422 6.983252540230751 3.3566343784332275 -1.4122755825519562 1.5684767067432404 2.619520090520382 -1.5993848070502281 1.3862984720617533 1.3582941144704819 -1.9941305369138718 0.2678651735186577 -0.25412488728761673 -0.8804820477962494 9.709005206823349 1.0983525216579437 -0.34511178731918335 0.3006444498896599 -2.1304481104016304 5.317971892654896 1.3510219752788544 -1.706380806863308 -1.695314683020115 0.32765312120318413 -1.428536307066679 0.17939806217327714 -25.422639548778534 26.275380849838257 -54.31366503238678 24.821505546569824 -28.81578952074051 -57.87471055984497 -8.59725371003151 -11.515224874019623 -3.4726962447166443 1.8370875343680382 1.205925615504384 -0.6076927995309234 0.0641392869874835 1.0078618302941322 -1.8738292716443539 2.1300414204597473 -2.0000015571713448 0.8932740055024624 -6.458247676491737 6.634312570095062 0.6692188605666161 -1.0675612650811672 -2.0533858984708786 -2.4396273493766785 -2.240543235093355 0.6101528462022543 1.6597945243120193 2.2494322434067726 1.549348197877407 -1.4322741329669952 -10.9456517547369 1.2397760152816772 -1.9501382857561111 -2.2297367826104164 -1.8446035869419575 -0.8657309878617525 -2.1709541603922844 1.6272024996578693 1.2691487185657024 -1.7915533483028412 -0.5294313468039036 0.5133830197155476 -23.992469608783722 -26.94113999605179 -28.94509881734848 -0.09057819843292236 58.4986138343811 -7.572408467531204 -0.5343476682901382 -11.275961101055145 -16.09437122941017 -1.698978915810585 0.29796458780765533 0.052345069125294685 56.11416220664978 -55.53005754947662 51.9353985786438 67.42111086845398 81.97673499584198 -64.05182182788849 -0.4187213256955147 -7.380236238241196 5.895618125796318
